<svg width="28" height="28" viewBox="0 0 28 28" fill="none" xmlns="http://www.w3.org/2000/svg">
<g clip-path="url(#clip0_67_6641)">
<circle cx="14" cy="14" r="13" fill="#FFF9E2" stroke="#0F1D5C" stroke-width="2"/>
<path d="M19.4815 10.1692L12.4815 17.1692C12.42 17.2307 12.3366 17.2652 12.2496 17.2652C12.1627 17.2652 12.0793 17.2307 12.0178 17.1692L8.95525 14.1067C8.89729 14.0445 8.86574 13.9623 8.86724 13.8773C8.86874 13.7923 8.90317 13.7112 8.96329 13.651C9.02341 13.5909 9.10452 13.5565 9.18952 13.555C9.27453 13.5535 9.3568 13.585 9.419 13.643L12.2496 16.4731L19.0178 9.7055C19.08 9.64754 19.1622 9.61598 19.2472 9.61748C19.3322 9.61898 19.4133 9.65342 19.4735 9.71354C19.5336 9.77366 19.568 9.85476 19.5695 9.93977C19.571 10.0248 19.5395 10.107 19.4815 10.1692Z" fill="#0F1D5C"/>
<path d="M9.1001 13.7001L12.2501 16.8501L19.2501 9.8501" stroke="#0F1D5C" stroke-width="2" stroke-linecap="round"/>
</g>
<defs>
<clipPath id="clip0_67_6641">
<rect width="28" height="28" fill="white"/>
</clipPath>
</defs>
</svg>
