<svg width="56" height="58" viewBox="0 0 56 58" fill="none" xmlns="http://www.w3.org/2000/svg">
<path d="M20.7815 8.76075C17.2208 8.76075 13.7249 9.33627 10.4231 10.5513C8.02775 11.3826 5.89133 12.4057 4.01387 13.6207L2.5896 6.5226C5.69711 4.09261 9.77572 2.23815 14.8902 1.02316C17.5445 0.319735 20.7815 0 24.6012 0C33.2116 0 39.9445 1.40684 44.6705 4.22051C50.3029 7.54576 53.0867 12.7894 53.0867 19.8875C53.0867 24.108 51.4682 28.2007 48.1665 32.2293C45.3179 35.7464 41.4983 39.0077 36.6428 42.0772C33.341 44.2514 28.9387 46.6814 23.5006 49.3032C32.8879 49.0474 41.1746 48.4719 48.2312 47.5127C51.3387 47.0651 53.9283 46.6174 56 46.1698V58H0V49.2393C20.7815 38.8159 31.1399 28.8401 31.1399 19.1841C31.1399 15.5391 29.7156 12.7894 27.4497 11.0628C25.4428 9.52812 22.9179 8.76075 20.7815 8.76075Z" fill="#0F1D5C"/>
</svg>
