<svg width="56" height="70" viewBox="0 0 56 70" fill="none" xmlns="http://www.w3.org/2000/svg">
<path d="M26.7284 1.24537L45.2289 0C44.8299 2.90586 44.5307 6.69385 44.3313 11.3121C44.2315 13.5434 44.1817 15.8265 44.1817 18.2654V37.7242L45.6278 37.5686C49.3179 37.3091 51.8112 37.0497 53.1077 36.894L56 36.5308V46.1824H44.1817V52.98C44.1817 57.0274 44.3313 61.0749 44.6803 65.1742C44.8299 67.3017 45.0294 68.9103 45.2289 70H26.7284C27.1273 67.146 27.4265 63.7213 27.6759 59.7776C27.7756 57.7539 27.8255 55.5226 27.8255 52.98V46.1824H0V39.1772L13.1647 20.7561C15.2591 17.8503 18.0516 13.9066 21.4924 8.97702L22.3402 7.78354L25.4319 3.26909C26.2796 2.02372 26.6785 1.34915 26.7284 1.24537ZM27.8255 38.3988V19.5108C27.8255 16.2936 27.7756 13.6471 27.626 11.6234C25.4817 15.5152 22.6394 20.0815 19.049 25.2706C14.8103 31.238 11.6189 35.7524 9.37489 38.8139L19.2983 38.6064C23.138 38.5545 25.9804 38.4507 27.8255 38.3988Z" fill="#0F1D5C"/>
</svg>
