<svg width="304" height="172" viewBox="0 0 304 172" fill="none" xmlns="http://www.w3.org/2000/svg">
<path fill-rule="evenodd" clip-rule="evenodd" d="M132 9C122.06 9 114 17.0595 114 27V69C114 69.5775 114.027 70.1475 114.081 70.71L120.883 59.826C128.425 47.76 145.531 46.5285 154.723 57.3915L162.476 66.5535C169.332 56.196 185.125 56.0625 192 66.8115V48C192 47.2044 192.316 46.4413 192.879 45.8787C193.441 45.3161 194.204 45 195 45C195.796 45 196.559 45.3161 197.121 45.8787C197.684 46.4413 198 47.2044 198 48V69C198 82.2555 187.255 93 174 93H132C118.745 93 108 82.2555 108 69V27C108 13.7445 118.745 3 132 3H153C153.796 3 154.559 3.31607 155.121 3.87868C155.684 4.44129 156 5.20435 156 6C156 6.79565 155.684 7.55871 155.121 8.12132C154.559 8.68393 153.796 9 153 9H132ZM190.269 76.71L187.683 71.3655C183.363 62.4435 170.721 62.673 166.604 71.4315L179.144 86.2545C181.562 85.5305 183.802 84.3071 185.719 82.6633C187.635 81.0195 189.185 78.9904 190.269 76.71ZM132 87C128.871 87.0014 125.795 86.1865 123.077 84.6358C120.359 83.0851 118.092 80.8521 116.5 78.1575L116.544 78.09L125.971 63.006C131.358 54.387 143.577 53.508 150.142 61.266L171.915 87H132Z" fill="#0B349D"/>
<path d="M194.008 23.2304C193.715 23.494 193.373 23.6972 193.001 23.8285C192.629 23.9599 192.236 24.0167 191.842 23.9958C191.449 23.9749 191.063 23.8767 190.708 23.7068C190.352 23.5368 190.033 23.2985 189.77 23.0054L181.501 13.8194V38.9999C181.501 39.7956 181.184 40.5587 180.622 41.1213C180.059 41.6839 179.296 41.9999 178.501 41.9999C177.705 41.9999 176.942 41.6839 176.379 41.1213C175.817 40.5587 175.501 39.7956 175.501 38.9999V13.8179L167.231 23.0069C166.699 23.5985 165.953 23.9544 165.159 23.9963C164.364 24.0382 163.585 23.7627 162.994 23.2304C162.402 22.6982 162.046 21.9527 162.004 21.158C161.962 20.3633 162.238 19.5845 162.77 18.9929L171.811 8.94895C172.654 8.0111 173.686 7.26118 174.839 6.74784C175.991 6.23451 177.239 5.96924 178.501 5.96924C179.762 5.96924 181.01 6.23451 182.162 6.74784C183.315 7.26118 184.347 8.0111 185.191 8.94895L194.231 18.9929C194.495 19.2859 194.698 19.6279 194.829 19.9995C194.96 20.371 195.017 20.7648 194.996 21.1583C194.975 21.5518 194.877 21.9374 194.707 22.2929C194.537 22.6484 194.301 22.967 194.008 23.2304Z" fill="#0B349D"/>
<path d="M10.1219 165.298C8.71564 165.298 7.46209 165.057 6.36124 164.574C5.26749 164.091 4.39746 163.42 3.75115 162.56C3.11195 161.694 2.76394 160.689 2.70712 159.545H5.39178C5.4486 160.249 5.69007 160.856 6.11621 161.367C6.54235 161.871 7.09988 162.262 7.7888 162.539C8.47772 162.816 9.24121 162.955 10.0793 162.955C11.0168 162.955 11.8477 162.791 12.5722 162.464C13.2966 162.138 13.8648 161.683 14.2767 161.101C14.6887 160.518 14.8946 159.844 14.8946 159.077C14.8946 158.274 14.6958 157.567 14.298 156.957C13.9003 156.339 13.3179 155.856 12.5509 155.508C11.7838 155.16 10.8463 154.986 9.73837 154.986H7.99121V152.642H9.73837C10.6048 152.642 11.3648 152.486 12.0182 152.173C12.6787 151.861 13.1936 151.42 13.5629 150.852C13.9394 150.284 14.1276 149.616 14.1276 148.849C14.1276 148.111 13.9642 147.468 13.6375 146.921C13.3108 146.374 12.8492 145.948 12.2526 145.643C11.6631 145.337 10.9671 145.185 10.1645 145.185C9.41167 145.185 8.70144 145.323 8.03382 145.6C7.37331 145.87 6.83354 146.264 6.41451 146.783C5.99547 147.294 5.7682 147.912 5.73269 148.636H3.17587C3.21848 147.493 3.56294 146.491 4.20925 145.632C4.85556 144.766 5.70073 144.091 6.74476 143.608C7.7959 143.125 8.95002 142.884 10.2071 142.884C11.5566 142.884 12.7142 143.157 13.6801 143.704C14.646 144.244 15.3882 144.957 15.9067 145.845C16.4252 146.733 16.6844 147.692 16.6844 148.722C16.6844 149.95 16.3612 150.998 15.7149 151.864C15.0757 152.731 14.2057 153.331 13.1048 153.665V153.835C14.4827 154.062 15.5587 154.648 16.3328 155.593C17.107 156.531 17.4941 157.692 17.4941 159.077C17.4941 160.263 17.1709 161.328 16.5246 162.273C15.8854 163.21 15.0118 163.949 13.9039 164.489C12.7959 165.028 11.5352 165.298 10.1219 165.298ZM26.7093 165.384C25.6723 165.384 24.7313 165.188 23.8861 164.798C23.0409 164.4 22.3698 163.828 21.8726 163.082C21.3754 162.33 21.1269 161.42 21.1269 160.355C21.1269 159.418 21.3115 158.658 21.6808 158.075C22.0502 157.486 22.5438 157.024 23.1617 156.69C23.7796 156.357 24.4614 156.108 25.2071 155.945C25.96 155.774 26.7164 155.639 27.4763 155.54C28.4706 155.412 29.2767 155.316 29.8946 155.252C30.5196 155.181 30.9742 155.064 31.2583 154.901C31.5494 154.737 31.695 154.453 31.695 154.048V153.963C31.695 152.912 31.4074 152.095 30.8321 151.513C30.2639 150.93 29.401 150.639 28.2433 150.639C27.0431 150.639 26.102 150.902 25.4202 151.428C24.7384 151.953 24.259 152.514 23.982 153.111L21.5956 152.259C22.0218 151.264 22.5899 150.49 23.3002 149.936C24.0175 149.375 24.7987 148.984 25.6439 148.764C26.4962 148.537 27.3343 148.423 28.1581 148.423C28.6837 148.423 29.2874 148.487 29.9692 148.615C30.6581 148.736 31.3222 148.988 31.9614 149.371C32.6077 149.755 33.1439 150.334 33.57 151.108C33.9962 151.882 34.2093 152.919 34.2093 154.219V165H31.695V162.784H31.5672C31.3968 163.139 31.1127 163.519 30.7149 163.924C30.3172 164.329 29.7881 164.673 29.1276 164.957C28.4671 165.241 27.661 165.384 26.7093 165.384ZM27.0928 163.125C28.0871 163.125 28.9252 162.93 29.607 162.539C30.2959 162.148 30.8144 161.644 31.1624 161.026C31.5175 160.408 31.695 159.759 31.695 159.077V156.776C31.5885 156.903 31.3541 157.021 30.9919 157.127C30.6368 157.227 30.2249 157.315 29.7561 157.393C29.2945 157.464 28.8435 157.528 28.4031 157.585C27.9699 157.635 27.6183 157.678 27.3485 157.713C26.695 157.798 26.0843 157.937 25.5161 158.129C24.955 158.313 24.5004 158.594 24.1524 158.97C23.8115 159.339 23.6411 159.844 23.6411 160.483C23.6411 161.357 23.9642 162.017 24.6105 162.464C25.2639 162.905 26.0914 163.125 27.0928 163.125ZM48.8976 148.636V150.98H41.3124V165H38.7982V148.636H48.8976ZM52.5677 171.136V148.636H54.9967V151.236H55.295C55.4797 150.952 55.7354 150.589 56.0621 150.149C56.3959 149.702 56.8717 149.304 57.4896 148.956C58.1146 148.601 58.9598 148.423 60.0251 148.423C61.403 148.423 62.6175 148.768 63.6686 149.457C64.7197 150.146 65.54 151.122 66.1295 152.386C66.719 153.651 67.0138 155.142 67.0138 156.861C67.0138 158.594 66.719 160.096 66.1295 161.367C65.54 162.631 64.7233 163.612 63.6792 164.308C62.6352 164.996 61.4314 165.341 60.0677 165.341C59.0166 165.341 58.175 165.167 57.5429 164.819C56.9108 164.464 56.4243 164.062 56.0834 163.615C55.7425 163.161 55.4797 162.784 55.295 162.486H55.0819V171.136H52.5677ZM55.0393 156.818C55.0393 158.054 55.2204 159.144 55.5827 160.089C55.9449 161.026 56.474 161.761 57.17 162.294C57.866 162.82 58.7183 163.082 59.7268 163.082C60.778 163.082 61.6551 162.805 62.3582 162.251C63.0684 161.69 63.6011 160.937 63.9562 159.993C64.3184 159.041 64.4996 157.983 64.4996 156.818C64.4996 155.668 64.322 154.631 63.9669 153.707C63.6189 152.777 63.0898 152.042 62.3795 151.502C61.6764 150.955 60.7922 150.682 59.7268 150.682C58.7041 150.682 57.8447 150.941 57.1487 151.46C56.4527 151.971 55.9271 152.688 55.572 153.612C55.2169 154.528 55.0393 155.597 55.0393 156.818ZM71.8824 171.136C71.4562 171.136 71.0763 171.101 70.7425 171.03C70.4086 170.966 70.1778 170.902 70.05 170.838L70.6892 168.622C71.3 168.778 71.8398 168.835 72.3085 168.793C72.7773 168.75 73.1927 168.54 73.555 168.164C73.9243 167.795 74.2616 167.195 74.567 166.364L75.0358 165.085L68.9846 148.636H71.7119L76.229 161.676H76.3994L80.9165 148.636H83.6437L76.6977 167.386C76.3852 168.232 75.9981 168.931 75.5365 169.485C75.0748 170.046 74.5386 170.462 73.9278 170.732C73.3241 171.001 72.6423 171.136 71.8824 171.136ZM85.9395 160.824H88.6242C88.681 161.562 89.0148 162.124 89.6256 162.507C90.2435 162.891 91.0461 163.082 92.0333 163.082C93.0418 163.082 93.9047 162.876 94.6221 162.464C95.3394 162.045 95.6981 161.371 95.6981 160.44C95.6981 159.893 95.5631 159.418 95.2932 159.013C95.0233 158.601 94.6434 158.281 94.1533 158.054C93.6633 157.827 93.0844 157.713 92.4168 157.713H89.6043V155.455H92.4168C93.4182 155.455 94.1569 155.227 94.6327 154.773C95.1157 154.318 95.3572 153.75 95.3572 153.068C95.3572 152.337 95.0979 151.751 94.5795 151.31C94.061 150.863 93.3259 150.639 92.3742 150.639C91.4154 150.639 90.6164 150.856 89.9772 151.289C89.338 151.715 89.0006 152.266 88.9651 152.94H86.3231C86.3515 152.06 86.6214 151.282 87.1327 150.607C87.6441 149.925 88.3401 149.393 89.2208 149.009C90.1015 148.619 91.11 148.423 92.2464 148.423C93.3969 148.423 94.3948 148.626 95.24 149.031C96.0922 149.428 96.7492 149.972 97.2108 150.661C97.6796 151.342 97.914 152.116 97.914 152.983C97.914 153.906 97.6547 154.652 97.1363 155.22C96.6178 155.788 95.968 156.193 95.1867 156.435V156.605C95.8046 156.648 96.3408 156.847 96.7954 157.202C97.257 157.55 97.6157 158.008 97.8714 158.576C98.127 159.137 98.2549 159.759 98.2549 160.44C98.2549 161.435 97.9885 162.301 97.4559 163.04C96.9232 163.771 96.1917 164.339 95.2613 164.744C94.3309 165.142 93.2691 165.341 92.0759 165.341C90.9182 165.341 89.8813 165.153 88.9651 164.776C88.0489 164.393 87.3209 163.864 86.7812 163.189C86.2485 162.507 85.968 161.719 85.9395 160.824ZM104.301 161.293L112.184 148.636H115.082V165H112.568V152.344L104.727 165H101.786V148.636H104.301V161.293ZM117.46 150.98V148.636H130.756V150.98H125.386V165H122.872V150.98H117.46ZM136.597 154.56H141.284C143.202 154.56 144.668 155.046 145.684 156.019C146.699 156.992 147.207 158.224 147.207 159.716C147.207 160.696 146.98 161.587 146.525 162.39C146.071 163.185 145.403 163.821 144.523 164.297C143.642 164.766 142.562 165 141.284 165H134.423V148.636H136.937V162.656H141.284C142.278 162.656 143.095 162.393 143.734 161.868C144.373 161.342 144.693 160.668 144.693 159.844C144.693 158.977 144.373 158.271 143.734 157.724C143.095 157.177 142.278 156.903 141.284 156.903H136.597V154.56ZM166.12 170.582V143.182H168.634V170.582H166.12ZM166.12 165.341C165.012 165.341 164.003 165.142 163.094 164.744C162.185 164.339 161.404 163.768 160.75 163.029C160.097 162.283 159.593 161.392 159.238 160.355C158.883 159.318 158.705 158.168 158.705 156.903C158.705 155.625 158.883 154.467 159.238 153.43C159.593 152.386 160.097 151.491 160.75 150.746C161.404 150 162.185 149.428 163.094 149.031C164.003 148.626 165.012 148.423 166.12 148.423H166.887V165.341H166.12ZM166.12 163.082H166.546V150.682H166.12C165.282 150.682 164.554 150.852 163.936 151.193C163.318 151.527 162.807 151.985 162.402 152.567C162.004 153.143 161.706 153.803 161.507 154.549C161.315 155.295 161.219 156.08 161.219 156.903C161.219 157.997 161.393 159.013 161.741 159.95C162.089 160.888 162.625 161.644 163.35 162.219C164.074 162.795 164.998 163.082 166.12 163.082ZM168.634 165.341H167.867V148.423H168.634C169.742 148.423 170.75 148.626 171.66 149.031C172.569 149.428 173.35 150 174.003 150.746C174.657 151.491 175.161 152.386 175.516 153.43C175.871 154.467 176.049 155.625 176.049 156.903C176.049 158.168 175.871 159.318 175.516 160.355C175.161 161.392 174.657 162.283 174.003 163.029C173.35 163.768 172.569 164.339 171.66 164.744C170.75 165.142 169.742 165.341 168.634 165.341ZM168.634 163.082C169.479 163.082 170.207 162.919 170.818 162.592C171.436 162.259 171.944 161.804 172.341 161.229C172.746 160.646 173.044 159.986 173.236 159.247C173.435 158.501 173.535 157.72 173.535 156.903C173.535 155.81 173.361 154.79 173.013 153.846C172.665 152.901 172.128 152.138 171.404 151.555C170.679 150.973 169.756 150.682 168.634 150.682H168.208V163.082H168.634ZM186.54 165.341C185.062 165.341 183.766 164.989 182.651 164.286C181.543 163.583 180.677 162.599 180.052 161.335C179.434 160.071 179.125 158.594 179.125 156.903C179.125 155.199 179.434 153.711 180.052 152.44C180.677 151.168 181.543 150.181 182.651 149.478C183.766 148.775 185.062 148.423 186.54 148.423C188.017 148.423 189.31 148.775 190.418 149.478C191.533 150.181 192.399 151.168 193.017 152.44C193.642 153.711 193.954 155.199 193.954 156.903C193.954 158.594 193.642 160.071 193.017 161.335C192.399 162.599 191.533 163.583 190.418 164.286C189.31 164.989 188.017 165.341 186.54 165.341ZM186.54 163.082C187.662 163.082 188.585 162.795 189.31 162.219C190.034 161.644 190.57 160.888 190.918 159.95C191.266 159.013 191.44 157.997 191.44 156.903C191.44 155.81 191.266 154.79 190.918 153.846C190.57 152.901 190.034 152.138 189.31 151.555C188.585 150.973 187.662 150.682 186.54 150.682C185.418 150.682 184.494 150.973 183.77 151.555C183.045 152.138 182.509 152.901 182.161 153.846C181.813 154.79 181.639 155.81 181.639 156.903C181.639 157.997 181.813 159.013 182.161 159.95C182.509 160.888 183.045 161.644 183.77 162.219C184.494 162.795 185.418 163.082 186.54 163.082ZM195.654 150.98V148.636H208.949V150.98H203.58V165H201.066V150.98H195.654ZM218.415 165.341C216.937 165.341 215.641 164.989 214.526 164.286C213.418 163.583 212.552 162.599 211.927 161.335C211.309 160.071 211 158.594 211 156.903C211 155.199 211.309 153.711 211.927 152.44C212.552 151.168 213.418 150.181 214.526 149.478C215.641 148.775 216.937 148.423 218.415 148.423C219.892 148.423 221.185 148.775 222.293 149.478C223.408 150.181 224.274 151.168 224.892 152.44C225.517 153.711 225.829 155.199 225.829 156.903C225.829 158.594 225.517 160.071 224.892 161.335C224.274 162.599 223.408 163.583 222.293 164.286C221.185 164.989 219.892 165.341 218.415 165.341ZM218.415 163.082C219.537 163.082 220.46 162.795 221.185 162.219C221.909 161.644 222.445 160.888 222.793 159.95C223.141 159.013 223.315 157.997 223.315 156.903C223.315 155.81 223.141 154.79 222.793 153.846C222.445 152.901 221.909 152.138 221.185 151.555C220.46 150.973 219.537 150.682 218.415 150.682C217.293 150.682 216.369 150.973 215.645 151.555C214.92 152.138 214.384 152.901 214.036 153.846C213.688 154.79 213.514 155.81 213.514 156.903C213.514 157.997 213.688 159.013 214.036 159.95C214.384 160.888 214.92 161.644 215.645 162.219C216.369 162.795 217.293 163.082 218.415 163.082ZM250.718 148.636V165H248.204V148.636H250.718ZM249.738 156.435V158.778C249.17 158.991 248.606 159.18 248.044 159.343C247.483 159.499 246.894 159.624 246.276 159.716C245.658 159.801 244.98 159.844 244.241 159.844C242.388 159.844 240.9 159.343 239.777 158.342C238.662 157.34 238.105 155.838 238.105 153.835V148.594H240.619V153.835C240.619 154.673 240.779 155.362 241.098 155.902C241.418 156.442 241.851 156.843 242.398 157.106C242.945 157.369 243.559 157.5 244.241 157.5C245.307 157.5 246.269 157.404 247.128 157.212C247.995 157.013 248.865 156.754 249.738 156.435ZM262.192 165.341C260.616 165.341 259.255 164.993 258.112 164.297C256.976 163.594 256.098 162.614 255.481 161.357C254.87 160.092 254.564 158.622 254.564 156.946C254.564 155.27 254.87 153.793 255.481 152.514C256.098 151.229 256.958 150.227 258.059 149.51C259.167 148.786 260.459 148.423 261.937 148.423C262.789 148.423 263.63 148.565 264.461 148.849C265.292 149.134 266.049 149.595 266.731 150.234C267.412 150.866 267.956 151.705 268.361 152.749C268.765 153.793 268.968 155.078 268.968 156.605V157.67H256.354V155.497H266.411C266.411 154.574 266.226 153.75 265.857 153.026C265.495 152.301 264.976 151.729 264.302 151.31C263.634 150.891 262.846 150.682 261.937 150.682C260.935 150.682 260.069 150.93 259.337 151.428C258.613 151.918 258.055 152.557 257.665 153.345C257.274 154.134 257.079 154.979 257.079 155.881V157.33C257.079 158.565 257.292 159.613 257.718 160.472C258.151 161.325 258.751 161.974 259.518 162.422C260.285 162.862 261.177 163.082 262.192 163.082C262.853 163.082 263.449 162.99 263.982 162.805C264.522 162.614 264.987 162.33 265.378 161.953C265.768 161.57 266.07 161.094 266.283 160.526L268.712 161.207C268.456 162.031 268.027 162.756 267.423 163.381C266.819 163.999 266.074 164.482 265.186 164.83C264.298 165.17 263.3 165.341 262.192 165.341ZM272.792 165V148.636H275.307V155.753H276.968L282.849 148.636H286.088L279.483 156.52L286.173 165H282.934L277.565 158.097H275.307V165H272.792ZM293.721 165.384C292.684 165.384 291.743 165.188 290.898 164.798C290.053 164.4 289.381 163.828 288.884 163.082C288.387 162.33 288.139 161.42 288.139 160.355C288.139 159.418 288.323 158.658 288.693 158.075C289.062 157.486 289.555 157.024 290.173 156.69C290.791 156.357 291.473 156.108 292.219 155.945C292.972 155.774 293.728 155.639 294.488 155.54C295.482 155.412 296.288 155.316 296.906 155.252C297.531 155.181 297.986 155.064 298.27 154.901C298.561 154.737 298.707 154.453 298.707 154.048V153.963C298.707 152.912 298.419 152.095 297.844 151.513C297.276 150.93 296.413 150.639 295.255 150.639C294.055 150.639 293.114 150.902 292.432 151.428C291.75 151.953 291.271 152.514 290.994 153.111L288.607 152.259C289.033 151.264 289.602 150.49 290.312 149.936C291.029 149.375 291.81 148.984 292.656 148.764C293.508 148.537 294.346 148.423 295.17 148.423C295.695 148.423 296.299 148.487 296.981 148.615C297.67 148.736 298.334 148.988 298.973 149.371C299.619 149.755 300.156 150.334 300.582 151.108C301.008 151.882 301.221 152.919 301.221 154.219V165H298.707V162.784H298.579C298.408 163.139 298.124 163.519 297.727 163.924C297.329 164.329 296.8 164.673 296.139 164.957C295.479 165.241 294.673 165.384 293.721 165.384ZM294.104 163.125C295.099 163.125 295.937 162.93 296.619 162.539C297.308 162.148 297.826 161.644 298.174 161.026C298.529 160.408 298.707 159.759 298.707 159.077V156.776C298.6 156.903 298.366 157.021 298.004 157.127C297.649 157.227 297.237 157.315 296.768 157.393C296.306 157.464 295.855 157.528 295.415 157.585C294.982 157.635 294.63 157.678 294.36 157.713C293.707 157.798 293.096 157.937 292.528 158.129C291.967 158.313 291.512 158.594 291.164 158.97C290.823 159.339 290.653 159.844 290.653 160.483C290.653 161.357 290.976 162.017 291.622 162.464C292.276 162.905 293.103 163.125 294.104 163.125Z" fill="#0F1D5C"/>
</svg>
