<svg width="56" height="56" viewBox="0 0 56 56" fill="none" xmlns="http://www.w3.org/2000/svg">
<rect width="56" height="56" rx="28" fill="#0F1D5C"/>
<g clip-path="url(#clip0_1_5613)">
<path d="M20.9833 28.2632C20.3362 29.5352 21.0709 30.1432 22.7471 31.1818C24.1721 32.0622 26.1407 32.3841 27.4053 32.5129C26.887 33.0111 29.262 30.7269 22.422 37.3062C20.9716 38.6963 23.3065 40.9267 24.7558 39.5661L28.6793 35.7819C30.1814 37.227 31.6211 38.6119 32.6028 39.5714C34.0531 40.9373 36.387 38.7259 34.9525 37.3114C34.8448 37.2091 29.6356 32.2121 29.9534 32.5182C31.2338 32.3894 33.1728 32.0485 34.5809 31.1871L34.5799 31.1861C36.2561 30.1421 36.9908 29.5352 36.3532 28.2632C35.9679 27.5412 34.9293 26.9375 33.5465 27.9814C33.5465 27.9814 31.6792 29.4117 28.6677 29.4117C25.6551 29.4117 23.7889 27.9814 23.7889 27.9814C22.4072 26.9322 21.3643 27.5412 20.9833 28.2632V28.2632Z" fill="#FFF9E2"/>
<path d="M28.6661 27.4834C32.3374 27.4834 35.3352 24.6144 35.3352 21.0825C35.3352 17.5358 32.3374 14.6668 28.6661 14.6668C24.9939 14.6668 21.9961 17.5358 21.9961 21.0825C21.9961 24.6144 24.9939 27.4834 28.6661 27.4834ZM28.6661 17.9169C30.4701 17.9169 31.9415 19.3324 31.9415 21.0825C31.9415 22.8178 30.4701 24.2333 28.6661 24.2333C26.8622 24.2333 25.3908 22.8178 25.3908 21.0825C25.3897 19.3313 26.8611 17.9169 28.6661 17.9169V17.9169Z" fill="#FFF9E2"/>
</g>
<defs>
<clipPath id="clip0_1_5613">
<rect width="25.3333" height="25.3333" fill="white" transform="translate(16 14.6667)"/>
</clipPath>
</defs>
</svg>
