<svg width="21" height="20" viewBox="0 0 21 20" fill="none" xmlns="http://www.w3.org/2000/svg">
<path fill-rule="evenodd" clip-rule="evenodd" d="M9.41316 17.8263C11.4152 17.8263 13.2631 17.1662 14.7511 16.0518L18.6993 20L20.5 18.1993L16.5518 14.2511C17.6662 12.7631 18.3263 10.9152 18.3263 8.91316C18.3263 3.99056 14.3358 0 9.41316 0C4.49056 0 0.5 3.99056 0.5 8.91316C0.5 13.8358 4.49056 17.8263 9.41316 17.8263ZM9.41316 15.2797C12.9293 15.2797 15.7797 12.4293 15.7797 8.91316C15.7797 5.39702 12.9293 2.54662 9.41316 2.54662C5.89702 2.54662 3.04662 5.39702 3.04662 8.91316C3.04662 12.4293 5.89702 15.2797 9.41316 15.2797Z" fill="#0F1D5C"/>
</svg>
