<svg width="40" height="75" viewBox="0 0 40 75" fill="none" xmlns="http://www.w3.org/2000/svg">
<path d="M14.0541 11.459C11.5459 11.459 9.21081 11.9622 7.00541 13.0105C6.18378 13.4299 5.53514 13.8072 5.05946 14.1427L4.36757 14.6459L3.41622 9.99137C3.41622 9.94944 3.76216 9.73977 4.45405 9.27852C6.01081 8.27213 8.51892 7.18188 11.7622 6.34323C13.5351 5.9239 15.5243 5.71423 17.6865 5.71423C23.4378 5.71423 28.0216 6.63675 31.3514 8.52373C35.2 10.7042 37.1459 13.975 37.1459 18.294C37.1459 20.8519 35.7622 23.4098 33.2973 25.4226C30.8324 27.4354 27.4162 28.903 23.4378 29.5739C28.4541 29.7836 32.3892 30.8739 35.2 32.7608C38.4 34.9413 40 38.0444 40 42.0699C40 47.8147 37.9676 52.7627 33.9027 56.9141C30.6595 60.1848 26.1622 62.8266 20.4541 64.8394C14.7892 66.8521 8.3027 68.1101 0.951351 68.5714L0 63.791C4.71351 63.0782 8.90811 61.8621 12.6703 60.059C16.3892 58.2979 19.2865 56.1593 21.3622 53.6433C24 50.4564 25.3405 46.7664 25.3405 42.615C25.3405 38.9249 23.9135 36.1993 21.0162 34.3962C18.3351 32.7608 14.4 31.9641 9.25405 31.9641L8.47568 27.3515C12.627 27.3515 16.173 26.429 18.6378 24.7517C21.1027 23.0744 22.4865 20.81 22.4865 18.294C22.4865 15.9039 21.4486 14.1008 19.8486 12.9686C18.3351 11.9622 16.3892 11.459 14.0541 11.459Z" fill="#0F1D5C"/>
</svg>
