<svg width="56" height="56" viewBox="0 0 56 56" fill="none" xmlns="http://www.w3.org/2000/svg">
<rect width="56" height="56" rx="28" fill="#0F1D5C"/>
<path d="M35.915 29.028C35.527 28.538 35.638 28.32 35.915 27.882C35.92 27.877 39.123 23.451 39.453 21.95L39.455 21.949C39.619 21.402 39.455 21 38.662 21H36.038C35.37 21 35.062 21.345 34.897 21.731C34.897 21.731 33.561 24.929 31.671 27.002C31.061 27.601 30.779 27.793 30.446 27.793C30.282 27.793 30.027 27.601 30.027 27.054V21.949C30.027 21.293 29.84 21 29.287 21H25.161C24.742 21 24.493 21.306 24.493 21.591C24.493 22.213 25.438 22.356 25.536 24.106V27.903C25.536 28.735 25.385 28.888 25.05 28.888C24.158 28.888 21.993 25.677 20.71 22.002C20.451 21.289 20.198 21.001 19.525 21.001H16.9C16.151 21.001 16 21.346 16 21.732C16 22.414 16.892 25.805 20.148 30.285C22.318 33.343 25.374 35 28.154 35C29.825 35 30.029 34.632 30.029 33.999C30.029 31.077 29.878 30.801 30.715 30.801C31.103 30.801 31.771 30.993 33.331 32.468C35.114 34.217 35.407 35 36.405 35H39.029C39.777 35 40.156 34.632 39.938 33.906C39.439 32.379 36.067 29.238 35.915 29.028V29.028Z" fill="#FFF9E2"/>
</svg>
